<svg id="yooATys20" viewBox="0 0 350 217.01652535031226" height="217.01652535031226" width="350" style="width: 350px; height: 217.017px; position: absolute; top: 50%; left: 50%; transform: translate(-50%, -50%) scale(0.598286); z-index: 0; cursor: pointer; overflow: visible;"><defs id="SvgjsDefs1047"></defs><g id="SvgjsG1048" featurekey="aMgJeN-0" transform="matrix(5.595351152492474,0,0,5.595351152492474,88.261997173369,-16.71536023918116)" fill="#48466d"><g xmlns="http://www.w3.org/2000/svg" transform="translate(0,-1020.3622)"><path style="text-indent:0;text-transform:none;direction:ltr;block-progression:tb;baseline-shift:baseline;color:;enable-background:accumulate;" d="M 8.34375 3 C 7.3825818 2.9315643 6.3948755 3.139575 5.5 3.65625 C 3.1136657 5.03395 2.2784995 8.1137 3.65625 10.5 C 5.0340005 12.8864 8.1136662 13.72155 10.5 12.34375 C 12.886335 10.96605 13.7215 7.8864 12.34375 5.5 C 11.482656 4.0085625 9.9456971 3.1140596 8.34375 3 z M 8.28125 4 C 9.4044333 4.0786319 10.474284 4.6495547 11.1875 5.59375 L 4.3125 9.53125 C 3.5433338 7.6986485 4.2320409 5.5519535 6 4.53125 C 6.7193622 4.1159375 7.5132417 3.9462332 8.28125 4 z M 23.1875 5.71875 C 22.291304 5.71875 21.401232 6.03625 20.71875 6.71875 L 17.5625 9.90625 A 0.50005 0.50005 0 0 0 17.375 10.0625 L 14.34375 13.09375 C 12.978787 14.45865 12.978787 16.66625 14.34375 18.03125 C 15.708714 19.39625 17.916286 19.39625 19.28125 18.03125 L 22.375 14.96875 A 0.50821532 0.50821532 0 0 0 22.40625 14.9375 L 22.4375 14.90625 A 0.50821532 0.50821532 0 0 0 22.53125 14.78125 L 25.65625 11.6875 C 27.021213 10.3226 27.021213 8.08375 25.65625 6.71875 C 24.973768 6.03625 24.083696 5.71875 23.1875 5.71875 z M 11.65625 6.4375 C 12.450732 8.2781474 11.780001 10.441095 10 11.46875 C 8.2210371 12.495899 6.0098055 11.981131 4.8125 10.375 L 11.65625 6.4375 z M 23.1875 6.6875 C 23.825019 6.6875 24.444771 6.94475 24.9375 7.4375 C 25.922959 8.423 25.922959 9.98335 24.9375 10.96875 L 22.0625 13.875 L 18.53125 10.34375 L 21.40625 7.4375 C 21.89898 6.94475 22.549981 6.6875 23.1875 6.6875 z M 17.8125 11.03125 L 21.34375 14.59375 L 18.59375 17.34375 C 17.608291 18.32925 16.04796 18.32925 15.0625 17.34375 C 14.077041 16.35825 14.077041 14.7979 15.0625 13.8125 L 17.8125 11.03125 z M 6.5 15 C 5.603804 15 4.7137318 15.34875 4.03125 16.03125 C 2.6662864 17.39615 2.6662864 19.6351 4.03125 21 L 7.1875 24.125 A 0.50825068 0.50825068 0 0 0 7.40625 24.34375 L 10.375 27.34375 C 11.739963 28.70865 13.978787 28.70865 15.34375 27.34375 C 16.708714 25.97875 16.708714 23.77125 15.34375 22.40625 L 12.28125 19.375 A 0.50005 0.50005 0 0 0 12.15625 19.21875 L 8.96875 16.03125 C 8.2862682 15.34875 7.396196 15 6.5 15 z M 6.5 16 C 7.1375186 16 7.7572703 16.25725 8.25 16.75 L 11.15625 19.65625 L 7.625 23.1875 L 4.71875 20.28125 C 3.7332906 19.29575 3.7332906 17.7354 4.71875 16.75 C 5.2114797 16.25725 5.8624814 16 6.5 16 z M 24 17 C 22.971581 17 21.935204 17.3773 21.15625 18.15625 C 19.59834 19.71415 19.59834 22.28585 21.15625 23.84375 C 22.714159 25.40175 25.285841 25.40175 26.84375 23.84375 C 28.40166 22.28585 28.40166 19.71415 26.84375 18.15625 C 26.064796 17.3773 25.028419 17 24 17 z M 24 18 C 24.600194 18 25.2038 18.198757 25.71875 18.5625 L 21.5625 22.71875 C 20.736351 21.549122 20.824701 19.925334 21.875 18.875 C 22.46288 18.2871 23.236963 18 24 18 z M 26.4375 19.25 C 27.279083 20.421218 27.181273 22.068692 26.125 23.125 C 25.068727 24.181308 23.421203 24.279111 22.25 23.4375 L 26.4375 19.25 z M 11.84375 20.34375 L 14.625 23.09375 C 15.610459 24.07925 15.610459 25.67075 14.625 26.65625 C 13.63954 27.64165 12.079209 27.64165 11.09375 26.65625 L 8.3125 23.875 L 11.84375 20.34375 z " transform="translate(0,1020.3622)" fill="#48466d" fill-opacity="1" stroke="none" marker="none" visibility="visible" display="inline" overflow="visible"></path></g></g><g id="SvgjsG1049" featurekey="8L6ael-0" transform="matrix(3.7073127526315544,0,0,3.7073127526315544,-6.005838279964695,143.4634397724112)" fill="#48466d"><path d="M8.36 5 q2.38 0 3.84 1.37 t1.46 3.65 t-1.44 3.64 t-3.86 1.36 l-3.82 0 l0 4.08 q0 0.28 -0.21 0.49 t-0.49 0.21 l-1.52 0 q-0.28 0 -0.49 -0.21 t-0.21 -0.49 l0 -6.2 q0 -0.28 0.21 -0.49 t0.49 -0.21 l5.92 0 q1.34 0 1.92 -0.58 q0.58 -0.52 0.58 -1.58 t-0.6 -1.63 t-1.9 -0.57 l-5.92 0 q-0.28 0 -0.49 -0.21 t-0.21 -0.49 l0 -1.44 q0 -0.28 0.21 -0.49 t0.49 -0.21 l6.04 0 z M19.688000000000002 10.94 q0.3 0 0.5 0.21 t0.2 0.51 l0 7.48 q0 0.28 -0.2 0.49 t-0.5 0.21 l-1.52 0 q-0.28 0 -0.49 -0.21 t-0.21 -0.49 l0 -7.48 q0 -0.3 0.21 -0.51 t0.49 -0.21 l1.52 0 z M19.688000000000002 5 q0.3 0 0.5 0.21 t0.2 0.49 l0 3.7 q0 0.3 -0.2 0.51 t-0.5 0.21 l-1.52 0 q-0.28 0 -0.49 -0.21 t-0.21 -0.51 l0 -3.7 q0 -0.28 0.21 -0.49 t0.49 -0.21 l1.52 0 z M27.616000000000003 5 q0.28 0 0.49 0.21 t0.21 0.49 l0 13.4 q0 0.28 -0.21 0.49 t-0.49 0.21 l-1.52 0 q-0.28 0 -0.49 -0.21 t-0.21 -0.49 l0 -13.4 q0 -0.28 0.21 -0.49 t0.49 -0.21 l1.52 0 z M34.916000000000004 16.94 q0.3 0 0.5 0.21 t0.2 0.49 l0 1.46 q0 0.28 -0.2 0.49 t-0.5 0.21 l-4.66 0 q-0.3 0 -0.5 -0.21 t-0.2 -0.49 l0 -1.46 q0 -0.28 0.2 -0.49 t0.5 -0.21 l4.66 0 z M41.54400000000001 5 q0.28 0 0.49 0.21 t0.21 0.49 l0 13.4 q0 0.28 -0.21 0.49 t-0.49 0.21 l-1.52 0 q-0.28 0 -0.49 -0.21 t-0.21 -0.49 l0 -13.4 q0 -0.28 0.21 -0.49 t0.49 -0.21 l1.52 0 z M48.84400000000001 16.94 q0.3 0 0.5 0.21 t0.2 0.49 l0 1.46 q0 0.28 -0.2 0.49 t-0.5 0.21 l-4.66 0 q-0.3 0 -0.5 -0.21 t-0.2 -0.49 l0 -1.46 q0 -0.28 0.2 -0.49 t0.5 -0.21 l4.66 0 z M59.992000000000004 5 q2.38 0 3.84 1.37 t1.46 3.65 t-1.44 3.64 t-3.86 1.36 l-3.82 0 l0 4.08 q0 0.28 -0.21 0.49 t-0.49 0.21 l-1.52 0 q-0.28 0 -0.49 -0.21 t-0.21 -0.49 l0 -6.2 q0 -0.28 0.21 -0.49 t0.49 -0.21 l5.92 0 q1.34 0 1.92 -0.58 q0.58 -0.52 0.58 -1.58 t-0.6 -1.63 t-1.9 -0.57 l-5.92 0 q-0.28 0 -0.49 -0.21 t-0.21 -0.49 l0 -1.44 q0 -0.28 0.21 -0.49 t0.49 -0.21 l6.04 0 z M82.26 18.86 q0.14 0.32 -0.07 0.65 t-0.57 0.33 l-13.32 0 q-0.18 0 -0.34 -0.09 t-0.24 -0.23 q-0.22 -0.32 -0.06 -0.66 l0.62 -1.46 q0.08 -0.2 0.26 -0.32 t0.38 -0.12 l9.32 0 l-3.28 -7.84 l-2.68 6.4 q-0.08 0.2 -0.25 0.31 t-0.39 0.11 l-1.68 0 q-0.38 0 -0.6 -0.32 q-0.08 -0.14 -0.1 -0.32 t0.04 -0.34 l4.06 -9.52 q0.08 -0.2 0.25 -0.32 t0.39 -0.12 l1.92 0 q0.22 0 0.39 0.12 t0.25 0.32 z M88.028 5 q0.28 0 0.49 0.21 t0.21 0.49 l0 13.4 q0 0.28 -0.21 0.49 t-0.49 0.21 l-1.52 0 q-0.28 0 -0.49 -0.21 t-0.21 -0.49 l0 -13.4 q0 -0.28 0.21 -0.49 t0.49 -0.21 l1.52 0 z M95.328 16.94 q0.3 0 0.5 0.21 t0.2 0.49 l0 1.46 q0 0.28 -0.2 0.49 t-0.5 0.21 l-4.66 0 q-0.3 0 -0.5 -0.21 t-0.2 -0.49 l0 -1.46 q0 -0.28 0.2 -0.49 t0.5 -0.21 l4.66 0 z"></path></g></svg>
